<?xml version="1.0" encoding="UTF-8" standalone="no"?>
<!-- Created with Inkscape (http://www.inkscape.org/) -->

<svg
   width="475.71075mm"
   height="488.272mm"
   viewBox="0 0 475.71075 488.272"
   version="1.1"
   id="svg561539"
   xmlns="http://www.w3.org/2000/svg"
   xmlns:svg="http://www.w3.org/2000/svg">
  <defs
     id="defs561536" />
  <g
     id="layer1"
     transform="translate(123.96265,128.4122)">
    <g
       id="g13208"
       transform="translate(426.78717,3349.1133)">
      <path
         id="path13163"
         style="fill:#006ae5;fill-opacity:1;fill-rule:evenodd;stroke-width:0.1;stroke-linecap:round;stroke-linejoin:round;paint-order:stroke fill markers;stop-color:#000000"
         d="m -286.46599,-3172.3555 v 61.034 l -52.85671,30.517 v -61.034 z" />
      <path
         id="path13165"
         style="fill:#006ae5;fill-opacity:1;fill-rule:evenodd;stroke-width:0.1;stroke-linecap:round;stroke-linejoin:round;paint-order:stroke fill markers;stop-color:#000000"
         d="m -286.46602,-3294.4235 v 61.034 l -52.85671,30.517 v -61.034 z" />
      <path
         id="path13167"
         style="fill:#6fb2ff;fill-opacity:1;fill-rule:evenodd;stroke-width:0.1;stroke-linecap:round;stroke-linejoin:round;paint-order:stroke fill markers;stop-color:#000000"
         d="m -497.89293,-3477.5255 -52.85671,30.517 52.85671,30.517 52.85674,-30.517 z" />
      <path
         id="path13169"
         style="fill:#006ae5;fill-opacity:1;fill-rule:evenodd;stroke-width:0.1;stroke-linecap:round;stroke-linejoin:round;paint-order:stroke fill markers;stop-color:#000000"
         d="m -445.03619,-3447.0085 v 61.034 l -52.85671,30.517 v -61.034 z" />
      <path
         id="path13171"
         style="fill:#006ae5;fill-opacity:1;fill-rule:evenodd;stroke-width:0.1;stroke-linecap:round;stroke-linejoin:round;paint-order:stroke fill markers;stop-color:#000000"
         d="m -445.03638,-3324.9405 -52.85674,30.517 v 61.034 61.034 l 52.85674,-30.517 v -61.034 z" />
      <path
         id="path13173"
         style="fill:#6fb2ff;fill-opacity:1;fill-rule:evenodd;stroke-width:0.1;stroke-linecap:round;stroke-linejoin:round;paint-order:stroke fill markers;stop-color:#000000"
         d="m -445.03619,-3385.9745 -52.85671,30.517 52.85671,30.517 52.85674,-30.517 z" />
      <path
         id="path13175"
         style="fill:#006ae5;fill-opacity:1;fill-rule:evenodd;stroke-width:0.1;stroke-linecap:round;stroke-linejoin:round;paint-order:stroke fill markers;stop-color:#000000"
         d="m -392.17945,-3355.4575 v 61.034 l -52.85671,30.517 v -61.034 z" />
      <path
         id="path13177"
         style="fill:#6fb2ff;fill-opacity:1;fill-rule:evenodd;stroke-width:0.1;stroke-linecap:round;stroke-linejoin:round;paint-order:stroke fill markers;stop-color:#000000"
         d="m -392.17948,-3294.4235 -52.85671,30.517 52.85671,30.517 52.85674,-30.517 z" />
      <path
         id="path13179"
         style="fill:#6fb2ff;fill-opacity:1;fill-rule:evenodd;stroke-width:0.1;stroke-linecap:round;stroke-linejoin:round;paint-order:stroke fill markers;stop-color:#000000"
         d="m -339.32296,-3385.9745 -52.85671,30.517 52.85671,30.517 52.85674,30.517 52.85671,30.517 52.85672,30.517 52.85673,30.517 52.856715,-30.517 -52.856715,-30.517 -52.85673,-30.517 -52.85672,-30.517 -52.85671,-30.517 z" />
      <path
         id="path13181"
         style="fill:#6fb2ff;fill-opacity:1;fill-rule:evenodd;stroke-width:0.1;stroke-linecap:round;stroke-linejoin:round;paint-order:stroke fill markers;stop-color:#000000"
         d="m -286.466,-3233.3895 -52.85671,30.517 52.85671,30.517 52.85674,-30.517 z" />
      <path
         id="path13183"
         style="fill:#006ae5;fill-opacity:1;fill-rule:evenodd;stroke-width:0.1;stroke-linecap:round;stroke-linejoin:round;paint-order:stroke fill markers;stop-color:#000000"
         d="m -127.89606,-3202.8725 -52.85673,30.517 v 61.034 61.034 61.034 l 52.85673,-30.517 v -61.034 -61.034 z" />
      <path
         id="path13185"
         style="fill:#006ae5;fill-opacity:1;fill-rule:evenodd;stroke-width:0.1;stroke-linecap:round;stroke-linejoin:round;paint-order:stroke fill markers;stop-color:#000000"
         d="m -233.60928,-3202.8725 v 61.034 l -52.85671,30.517 v -61.034 z" />
      <path
         id="path13187"
         style="fill:#006ae5;fill-opacity:1;fill-rule:evenodd;stroke-width:0.1;stroke-linecap:round;stroke-linejoin:round;paint-order:stroke fill markers;stop-color:#000000"
         d="m -75.039068,-3233.3895 v 61.034 l -52.856712,30.517 v -61.034 z" />
      <path
         id="path13189"
         style="fill:#2188ff;fill-opacity:1;fill-rule:evenodd;stroke-width:0.1;stroke-linecap:round;stroke-linejoin:round;paint-order:stroke fill markers;stop-color:#000000"
         d="m -550.74982,-3447.0085 v 61.034 61.034 61.034 61.034 l 52.85671,30.517 v -61.034 -61.034 l 52.85674,30.517 v -61.034 l -52.85674,-30.517 v -61.034 z" />
      <path
         id="path13191"
         style="fill:#2188ff;fill-opacity:1;fill-rule:evenodd;stroke-width:0.1;stroke-linecap:round;stroke-linejoin:round;paint-order:stroke fill markers;stop-color:#000000"
         d="m -392.17967,-3355.4575 v 61.034 61.034 l -52.85671,-30.517 v 61.034 l 52.85671,30.517 v 61.034 l 52.85672,30.517 v -61.034 l 52.85673,30.517 v -61.034 l -52.85673,-30.517 v -61.034 l 52.85673,30.517 52.85672,30.517 v 61.034 61.034 61.034 l 52.85671,30.517 v -61.034 -61.034 -61.034 l 52.85673,30.517 v -61.034 l -52.85673,-30.517 -52.85671,-30.517 -52.85672,-30.517 -52.85673,-30.517 z" />
    </g>
  </g>
</svg>
